<svg width="922" height="273" viewBox="0 0 922 273" fill="none" xmlns="http://www.w3.org/2000/svg">
<rect width="922" height="273" fill="#D7D7D7" fill-opacity="0.29"/>
<rect width="307" height="273" fill="#FCFCFC" fill-opacity="0.01"/>
<rect width="307" height="273" fill="#E4E4E4" fill-opacity="0.55"/>
<rect x="327" y="66" width="364" height="30" fill="#D8D8D8" fill-opacity="0.5"/>
<rect x="331" y="129" width="122" height="25" fill="#D8D8D8" fill-opacity="0.5"/>
<rect x="331" y="232" width="212" height="13" fill="#D8D8D8" fill-opacity="0.5"/>
<rect x="331" y="204" width="557" height="3" fill="#D8D8D8" fill-opacity="0.5"/>
<rect x="564" y="232" width="212" height="13" fill="#D8D8D8" fill-opacity="0.5"/>
<rect width="173" height="62" transform="matrix(1 0 0 -1 728 182)" fill="#D8D8D8" fill-opacity="0.32"/>
<rect x="741" y="25" width="160" height="31" fill="#D8D8D8" fill-opacity="0.32"/>
<rect x="328" y="25" width="20.12" height="20" fill="#D8D8D8" fill-opacity="0.4"/>
<rect x="359" y="25" width="20.12" height="20" fill="#D8D8D8" fill-opacity="0.4"/>
<rect x="392" y="25" width="20.12" height="20" fill="#D8D8D8" fill-opacity="0.4"/>
<rect x="424" y="25" width="20.12" height="20" fill="#D8D8D8" fill-opacity="0.4"/>
<rect x="456" y="25" width="20.12" height="20" fill="#D8D8D8" fill-opacity="0.4"/>
</svg>
