<svg width="234" height="110" viewBox="0 0 234 110" fill="none" xmlns="http://www.w3.org/2000/svg">
<g id="logonew 1" clip-path="url(#clip0_35_2451)">
<path id="Vector" d="M0 64.5413L41.1384 51.5167L33.287 109.769L46.8616 102.483L69.1804 42.637L109.171 29.979C110.303 29.6203 110.502 27.3884 109.474 26.6152L97.2703 17.4565C93.4681 14.6029 89.0681 13.9254 84.9391 15.5594L1.96086 48.408L0 64.5413Z" fill="#455BA8"/>
<path id="Vector_2" d="M57.1522 21.6891L37.687 29.3891L19.2739 1.00436L32.1949 0L57.1522 21.6891Z" fill="#D92434"/>
<path id="Vector_3" d="M141.366 25.4116V28.6H134.543V49.8587H130.557V28.6H123.774V25.4116H141.366Z" fill="#455BA8"/>
<path id="Vector_4" d="M151.027 31.5572C152.222 30.8319 153.609 30.4652 155.18 30.4652V34.7616H154C152.27 34.7616 150.875 35.1841 149.831 36.029C148.779 36.8739 148.253 38.2609 148.253 40.1978V49.8587H144.307V30.784H148.253V34.5225C148.907 33.271 149.831 32.2826 151.027 31.5572Z" fill="#455BA8"/>
<path id="Vector_5" d="M158.264 23.5782C158.727 23.1398 159.341 22.9166 160.098 22.9166C160.863 22.9166 161.477 23.1398 161.947 23.5782C162.417 24.0166 162.656 24.5746 162.656 25.2362C162.656 25.9058 162.417 26.4478 161.947 26.8623C161.477 27.2768 160.855 27.484 160.098 27.484C159.333 27.484 158.727 27.2768 158.264 26.8623C157.802 26.4478 157.571 25.9058 157.571 25.2362C157.571 24.5666 157.802 24.0166 158.264 23.5782Z" fill="#D92434"/>
<path id="Vector_6" d="M162.075 30.7761H158.129V49.8508H162.075V30.7761Z" fill="#455BA8"/>
<path id="Vector_7" d="M182.241 31.7087C183.549 32.4899 184.569 33.6218 185.302 35.1044C186.043 36.579 186.41 38.3167 186.41 40.3015C186.41 42.3102 186.043 44.0558 185.302 45.5305C184.561 47.0051 183.541 48.137 182.241 48.9261C180.934 49.7073 179.451 50.1058 177.793 50.1058C176.064 50.1058 174.581 49.6754 173.362 48.8225C172.134 47.9696 171.281 46.8377 170.803 45.4268V58.9297H166.857V30.7841H170.803V35.216C171.289 33.8051 172.142 32.6732 173.362 31.8203C174.581 30.9674 176.064 30.537 177.793 30.537C179.451 30.537 180.934 30.9276 182.241 31.7087ZM173.601 34.7776C172.724 35.2957 172.03 36.037 171.52 36.9935C171.01 37.95 170.755 39.05 170.755 40.3015C170.755 41.5689 171.01 42.6768 171.52 43.6254C172.03 44.5739 172.716 45.3073 173.601 45.8254C174.478 46.3435 175.474 46.6066 176.582 46.6066C178.335 46.6066 179.746 46.0486 180.807 44.9247C181.867 43.8087 182.401 42.2623 182.401 40.3015C182.401 38.3645 181.867 36.8261 180.807 35.6942C179.746 34.5623 178.335 33.9964 176.582 33.9964C175.474 33.9964 174.478 34.2595 173.601 34.7776Z" fill="#455BA8"/>
<path id="Vector_8" d="M145.072 61.1855V85.6326H141.087V74.6566H129.601V85.6326H125.655V61.1855H129.601V71.4363H141.095V61.1855H145.072Z" fill="#455BA8"/>
<path id="Vector_9" d="M161.931 67.5942C163.159 68.4471 164.02 69.5789 164.53 70.9898V66.5579H168.475V85.6326H164.53V81.2007C164.02 82.6116 163.159 83.7434 161.931 84.5963C160.704 85.4492 159.229 85.8797 157.499 85.8797C155.841 85.8797 154.351 85.4891 153.051 84.7C151.752 83.9108 150.724 82.7869 149.991 81.3043C149.249 79.8297 148.883 78.084 148.883 76.0753C148.883 74.0905 149.249 72.3608 149.991 70.8782C150.732 69.4036 151.752 68.2717 153.051 67.4826C154.359 66.7014 155.841 66.3029 157.499 66.3029C159.237 66.3108 160.712 66.7413 161.931 67.5942ZM154.51 71.4521C153.458 72.5681 152.932 74.1145 152.932 76.0753C152.932 78.0362 153.458 79.5746 154.51 80.6985C155.562 81.8224 156.965 82.3804 158.719 82.3804C159.827 82.3804 160.815 82.1174 161.7 81.5992C162.577 81.0811 163.27 80.3478 163.78 79.3992C164.291 78.4507 164.546 77.3427 164.546 76.0753C164.546 74.8318 164.291 73.7239 163.78 72.7673C163.27 71.8108 162.577 71.0695 161.7 70.5514C160.823 70.0333 159.827 69.7702 158.719 69.7702C156.957 69.7702 155.554 70.3362 154.51 71.4521Z" fill="#455BA8"/>
<path id="Vector_10" d="M189.216 68.3912C190.555 69.826 191.225 71.8666 191.225 74.521V85.6326H187.279V74.9354C187.279 73.2296 186.841 71.9064 185.964 70.9738C185.087 70.0412 183.883 69.571 182.361 69.571C180.791 69.571 179.531 70.0731 178.591 71.0774C177.65 72.0817 177.172 73.5565 177.172 75.4934V85.6405H173.226V66.5658H177.172V70.7586C177.682 69.3317 178.535 68.2159 179.73 67.4347C180.934 66.6536 182.313 66.255 183.883 66.255C186.099 66.2391 187.877 66.9564 189.216 68.3912Z" fill="#455BA8"/>
<path id="Vector_11" d="M207.916 67.5942C209.143 68.4471 209.996 69.579 210.475 70.9899V60.0138H214.46V85.6326H210.475V81.2008C209.988 82.6116 209.135 83.7435 207.916 84.5964C206.696 85.4493 205.214 85.8797 203.484 85.8797C201.826 85.8797 200.335 85.4892 199.036 84.7C197.737 83.9109 196.709 82.787 195.975 81.3044C195.234 79.8297 194.867 78.0841 194.867 76.0754C194.867 74.0906 195.234 72.3609 195.975 70.8783C196.717 69.4036 197.737 68.2718 199.036 67.4826C200.343 66.7015 201.826 66.3029 203.484 66.3029C205.214 66.3109 206.688 66.7413 207.916 67.5942ZM200.487 71.4522C199.435 72.5681 198.909 74.1145 198.909 76.0754C198.909 78.0363 199.435 79.5747 200.487 80.6986C201.539 81.8225 202.942 82.3805 204.696 82.3805C205.804 82.3805 206.792 82.1174 207.677 81.5993C208.554 81.0812 209.247 80.3479 209.757 79.3993C210.267 78.4507 210.522 77.3428 210.522 76.0754C210.522 74.8319 210.267 73.7239 209.757 72.7674C209.247 71.8109 208.554 71.0696 207.677 70.5515C206.8 70.0334 205.804 69.7703 204.696 69.7703C202.942 69.7703 201.539 70.3363 200.487 71.4522Z" fill="#455BA8"/>
<path id="Vector_12" d="M230.849 68.0246C232.196 69.1645 233.025 70.6949 233.328 72.6159H229.589C229.43 71.5797 228.983 70.7427 228.258 70.105C227.533 69.4674 226.568 69.1565 225.364 69.1565C224.368 69.1565 223.603 69.3956 223.061 69.8659C222.519 70.3362 222.248 70.9819 222.248 71.7869C222.248 72.3847 222.447 72.871 222.838 73.2376C223.228 73.6043 223.722 73.8992 224.312 74.1065C224.902 74.3137 225.739 74.5449 226.823 74.8C228.258 75.1268 229.414 75.4616 230.306 75.8043C231.191 76.1471 231.956 76.6971 232.594 77.4463C233.232 78.1956 233.543 79.2159 233.543 80.5072C233.543 82.1014 232.937 83.3927 231.725 84.3891C230.514 85.3855 228.88 85.8797 226.823 85.8797C224.448 85.8797 222.527 85.3297 221.06 84.2217C219.593 83.1137 218.709 81.5674 218.414 79.5826H222.256C222.367 80.6188 222.83 81.4637 223.643 82.1094C224.448 82.755 225.516 83.0819 226.831 83.0819C227.78 83.0819 228.521 82.8348 229.063 82.3405C229.605 81.8463 229.876 81.2166 229.876 80.4514C229.876 79.7819 229.669 79.2558 229.254 78.8572C228.84 78.4666 228.322 78.1558 227.692 77.9405C227.07 77.7253 226.217 77.4942 225.133 77.263C223.746 76.9362 222.622 76.6174 221.754 76.2905C220.885 75.9717 220.151 75.4456 219.538 74.7123C218.924 73.9869 218.621 72.9985 218.621 71.755C218.621 70.1369 219.227 68.8297 220.438 67.8253C221.65 66.821 223.332 66.3188 225.476 66.3188C227.708 66.3108 229.501 66.8847 230.849 68.0246Z" fill="#455BA8"/>
</g>
<defs>
<clipPath id="clip0_35_2451">
<rect width="233.551" height="110" fill="white"/>
</clipPath>
</defs>
</svg>
