<svg width="48" height="53" viewBox="0 0 48 53" fill="none" xmlns="http://www.w3.org/2000/svg">
<path d="M38.134 42.3948L46.161 51.2001L38.134 42.3948Z" fill="black"/>
<path d="M38.134 42.3948L46.161 51.2001" stroke="#13A722" stroke-width="3" stroke-linecap="round" stroke-linejoin="round"/>
<path d="M17.668 34.0271C17.6812 30.3986 19.0064 26.924 21.3527 24.366C23.699 21.8079 26.8747 20.3753 30.1829 20.3826C33.4911 20.3899 36.6616 21.8364 38.9985 24.4047C41.3354 26.9731 42.6479 30.4534 42.6479 34.0819C42.6479 37.7105 41.3354 41.1908 38.9985 43.7591C36.6616 46.3275 33.4911 47.774 30.1829 47.7813C26.8747 47.7885 23.699 46.3559 21.3527 43.7979C19.0064 41.2398 17.6812 37.7653 17.668 34.1368" fill="black"/>
<path d="M17.668 34.0271C17.6812 30.3986 19.0064 26.924 21.3527 24.366C23.699 21.8079 26.8747 20.3753 30.1829 20.3826C33.4911 20.3899 36.6616 21.8364 38.9985 24.4047C41.3354 26.9731 42.6479 30.4534 42.6479 34.0819C42.6479 37.7105 41.3354 41.1908 38.9985 43.7591C36.6616 46.3275 33.4911 47.774 30.1829 47.7813C26.8747 47.7885 23.699 46.3559 21.3527 43.7979C19.0064 41.2398 17.6812 37.7653 17.668 34.1368" stroke="#13A722" stroke-width="2" stroke-linecap="round" stroke-linejoin="round"/>
<path fill-rule="evenodd" clip-rule="evenodd" d="M18.938 33.5369C18.9512 30.4233 20.0899 27.4425 22.1042 25.2485C24.1186 23.0546 26.8441 21.8265 29.6829 21.8338C32.5217 21.841 35.2419 23.083 37.2469 25.2873C39.2519 27.4915 40.3779 30.4781 40.3779 33.5917C40.3779 36.7054 39.2519 39.6919 37.2469 41.8962C35.2419 44.1004 32.5217 45.3424 29.6829 45.3497C26.8441 45.3569 24.1186 44.1289 22.1042 41.9349C20.0899 39.7409 18.9512 36.7602 18.938 33.6466" fill="#13A722"/>
<path d="M18.938 33.5369C18.9512 30.4233 20.0899 27.4425 22.1042 25.2485C24.1186 23.0546 26.8441 21.8265 29.6829 21.8338C32.5217 21.841 35.2419 23.083 37.2469 25.2873C39.2519 27.4915 40.3779 30.4781 40.3779 33.5917C40.3779 36.7054 39.2519 39.6919 37.2469 41.8962C35.2419 44.1004 32.5217 45.3424 29.6829 45.3497C26.8441 45.3569 24.1186 44.1289 22.1042 41.9349C20.0899 39.7409 18.9512 36.7602 18.938 33.6466" stroke="#13A722" stroke-width="3" stroke-linecap="round" stroke-linejoin="round"/>
<path fill-rule="evenodd" clip-rule="evenodd" d="M21.81 5.81128H36.861V8.01151H21.811V5.81128H21.81Z" fill="#13A722"/>
<path fill-rule="evenodd" clip-rule="evenodd" d="M10.773 5.81128H12.78V8.01151H10.773V5.81128Z" fill="#13A722"/>
<path fill-rule="evenodd" clip-rule="evenodd" d="M5.75601 5.81128H7.76301V8.01151H5.75601V5.81128Z" fill="#13A722"/>
<path fill-rule="evenodd" clip-rule="evenodd" d="M0 14.9304H39.17V43.5564L2.656 43.3294V18.5707H0V46.2415H41.825V0.366699H0V14.9304ZM2.656 3.27987H39.17V12.0172H2.656V3.27987Z" fill="#13A722"/>
</svg>
